<?xml version="1.0" encoding="UTF-8" standalone="no"?>
<!DOCTYPE svg PUBLIC "-//W3C//DTD SVG 20010904//EN"
              "http://www.w3.org/TR/2001/REC-SVG-20010904/DTD/svg10.dtd">

<svg xmlns="http://www.w3.org/2000/svg"
     width="10.6667in" height="10.6667in"
     viewBox="0 0 768 768">
  <path id="Selection"
        fill="none" stroke="black" stroke-width="1"
        d="M 323.00,212.00
           C 323.00,212.00 332.67,226.00 332.67,226.00
             333.80,228.14 334.85,230.52 334.67,233.00
             334.33,237.97 328.15,248.76 322.00,248.57
             316.63,248.40 313.88,244.02 311.21,240.00
             309.62,237.61 307.29,233.98 307.64,231.00
             307.99,228.09 312.03,223.52 313.85,221.00
             317.07,216.54 318.13,214.74 323.00,212.00 Z
           M 387.00,212.00
           C 390.19,214.87 400.37,228.91 400.44,233.00
             400.49,236.01 397.91,239.49 396.29,241.96
             394.35,244.94 390.90,249.13 387.00,249.27
             380.20,249.52 372.44,234.78 373.23,231.00
             374.01,227.23 384.06,215.21 387.00,212.00 Z
           M 446.00,212.00
           C 451.31,213.59 452.10,215.65 455.18,220.00
             457.83,223.74 463.31,228.29 462.30,233.00
             461.75,235.55 459.57,238.41 457.96,240.42
             455.98,242.90 453.09,246.95 449.91,247.65
             439.75,249.88 432.66,234.16 437.96,225.00
             437.96,225.00 446.00,212.00 446.00,212.00 Z
           M 300.00,246.28
           C 301.24,246.18 300.99,245.63 303.00,246.28
             306.30,247.46 314.28,255.35 314.19,259.00
             314.19,259.00 308.56,273.00 308.56,273.00
             307.41,277.01 307.35,284.45 303.72,286.57
             301.65,287.78 290.95,288.55 288.04,288.67
             286.18,288.74 284.64,288.63 283.87,286.71
             282.93,284.83 283.84,280.26 283.87,278.00
             284.61,266.19 289.31,252.59 300.00,246.28 Z
           M 464.00,287.99
           C 463.98,280.90 463.24,275.66 460.55,269.00
             459.28,265.85 455.48,260.05 456.13,257.00
             456.89,253.40 464.11,246.03 468.00,246.25
             469.63,246.34 470.78,247.22 472.00,248.19
             479.89,254.44 485.07,265.20 486.72,275.00
             487.31,278.54 489.17,285.65 485.69,287.99
             483.39,289.51 468.14,288.00 464.00,287.99 Z
           M 362.98,247.67
           C 374.57,248.73 366.11,267.38 364.92,274.00
             364.52,276.21 363.33,282.87 362.02,284.40
             360.47,286.20 349.75,287.82 347.00,288.10
             337.42,289.11 340.11,279.05 341.31,273.00
             343.57,261.67 351.41,250.43 362.98,247.67 Z
           M 410.00,247.00
           C 427.72,252.18 435.95,271.98 436.00,289.00
             436.00,289.00 421.00,287.42 421.00,287.42
             421.00,287.42 414.58,285.98 414.58,285.98
             414.58,285.98 410.33,275.00 410.33,275.00
             410.33,275.00 404.79,261.00 404.79,261.00
             404.79,261.00 410.00,247.00 410.00,247.00 Z
           M 251.00,263.00
           C 251.00,263.00 259.55,275.58 259.55,275.58
             262.89,281.16 260.41,289.06 256.95,294.00
             255.37,296.24 253.08,299.33 250.00,299.18
             246.61,299.00 242.70,294.63 240.96,292.00
             239.51,289.80 236.69,284.62 236.90,282.00
             237.11,279.27 245.12,267.37 247.32,265.29
             248.78,263.92 249.33,263.83 251.00,263.00 Z
           M 523.00,264.00
           C 526.04,271.12 528.30,270.59 532.54,279.00
             533.38,280.68 534.60,282.90 534.51,284.83
             534.37,287.45 525.29,302.79 518.05,299.72
             514.83,298.35 513.15,294.02 511.85,291.00
             510.56,288.00 508.93,284.32 509.17,281.00
             509.45,277.15 515.09,267.84 518.18,265.60
             519.97,264.30 520.97,264.33 523.00,264.00 Z
           M 414.00,293.00
           C 416.95,293.79 432.89,298.37 434.22,299.81
             436.03,301.75 435.22,305.59 434.87,308.00
             434.09,313.36 432.02,322.03 429.99,327.00
             429.14,329.06 427.67,332.82 425.61,333.87
             423.71,334.85 421.70,333.95 420.00,333.00
             416.43,331.02 405.67,323.29 406.13,319.00
             406.13,319.00 410.61,309.00 410.61,309.00
             410.61,309.00 414.00,293.00 414.00,293.00 Z
           M 326.00,368.00
           C 319.80,366.24 315.47,361.45 311.00,357.00
             299.41,345.46 291.90,334.75 287.02,319.00
             285.92,315.41 282.25,301.33 284.69,298.60
             286.15,296.96 288.99,297.07 291.00,296.84
             297.90,296.02 297.79,295.07 306.00,295.00
             309.22,311.04 309.64,317.97 319.75,332.00
             322.97,336.47 325.88,339.85 330.09,343.42
             331.95,345.01 335.71,347.58 336.10,350.09
             336.55,352.97 327.95,364.81 326.00,368.00 Z
           M 339.00,297.00
           C 339.00,297.00 362.00,295.00 362.00,295.00
             362.86,299.56 363.87,305.93 365.82,310.00
             367.30,313.09 371.08,317.61 370.27,321.00
             369.33,324.92 357.15,335.24 353.04,334.90
             351.52,334.77 350.59,333.90 349.61,332.84
             342.11,324.70 339.01,307.79 339.00,297.00 Z
           M 466.00,295.00
           C 466.00,295.00 488.00,296.00 488.00,296.00
             487.56,315.90 480.47,336.20 468.35,352.00
             463.98,357.69 457.89,364.65 451.00,367.00
             448.76,363.40 440.94,354.13 440.82,351.00
             440.61,345.59 450.05,339.11 455.30,331.00
             462.26,320.26 464.35,307.46 466.00,295.00 Z
           M 252.00,312.00
           C 252.00,312.00 261.25,330.00 261.25,330.00
             264.90,338.69 263.35,342.67 255.00,346.73
             253.04,347.68 250.67,348.90 248.46,348.07
             245.97,347.14 243.54,343.21 242.23,341.00
             240.04,337.31 237.86,333.43 238.08,329.00
             238.37,323.12 246.57,313.89 252.00,312.00 Z
           M 523.00,313.00
           C 523.00,313.00 532.84,328.00 532.84,328.00
             535.28,333.28 528.92,348.17 522.98,348.93
             521.18,349.17 507.67,345.68 508.37,337.96
             508.78,333.53 512.17,327.00 514.14,323.00
             516.60,318.01 517.34,314.76 523.00,313.00 Z
           M 364.00,345.00
           C 364.00,345.00 382.00,332.91 382.00,332.91
             382.00,332.91 390.00,328.61 390.00,328.61
             390.00,328.61 399.00,333.57 399.00,333.57
             399.00,333.57 415.00,344.00 415.00,344.00
             411.97,349.89 403.32,355.29 398.00,359.44
             395.59,361.33 393.31,363.70 390.00,363.21
             385.28,362.51 369.24,350.23 364.00,347.00
             364.00,347.00 364.00,345.00 364.00,345.00 Z
           M 353.00,355.00
           C 353.00,355.00 373.00,369.00 373.00,369.00
             370.83,373.59 360.11,384.74 356.02,388.98
             354.11,390.98 351.28,394.77 348.13,393.60
             343.98,392.06 335.71,380.66 336.80,376.00
             338.06,370.62 348.92,359.12 353.00,355.00 Z
           M 265.00,357.59
           C 266.46,357.41 267.30,357.08 268.82,357.59
             272.63,359.03 277.25,369.36 279.77,373.00
             283.29,378.07 287.20,382.46 292.00,386.34
             293.98,387.93 297.71,390.25 297.84,393.04
             297.97,395.86 293.90,399.87 292.18,402.00
             290.84,403.66 288.77,407.37 286.73,407.89
             282.44,408.97 274.53,400.73 271.72,397.83
             263.97,389.86 259.00,383.41 254.94,373.00
             253.84,370.18 251.15,365.36 253.04,362.51
             254.56,360.21 262.24,358.25 265.00,357.59 Z
           M 469.00,393.00
           C 477.40,386.83 483.99,381.33 490.35,373.00
             490.35,373.00 500.33,358.64 500.33,358.64
             501.24,358.00 501.92,357.74 503.04,357.70
             504.33,357.66 515.53,361.68 516.31,362.59
             517.21,363.65 517.24,364.71 517.07,366.02
             516.82,367.85 515.11,371.22 514.30,373.00
             507.53,387.92 504.23,391.33 492.09,402.25
             489.47,404.60 483.98,411.01 480.21,410.18
             476.60,409.38 470.13,396.57 469.00,393.00 Z
           M 407.00,372.00
           C 409.21,367.55 420.57,356.89 425.91,358.64
             428.40,359.46 433.84,365.83 436.00,368.00
             438.16,370.16 444.31,375.01 444.18,378.09
             444.04,381.59 435.63,391.39 432.91,393.94
             431.23,395.52 429.02,397.64 426.63,396.12
             425.60,395.46 421.71,389.46 420.62,388.00
             417.56,383.88 410.66,375.27 407.00,372.00 Z
           M 367.00,393.00
           C 371.21,390.31 378.74,382.19 382.01,381.72
             384.60,381.35 386.74,382.85 389.00,383.80
             389.00,383.80 394.91,386.00 394.91,386.00
             396.87,387.13 405.38,395.89 407.28,398.01
             409.21,400.17 413.31,403.95 413.39,406.91
             413.48,410.68 403.83,417.77 401.00,421.00
             394.88,418.08 392.97,413.67 388.00,409.17
             382.43,404.15 373.87,399.06 367.00,396.00
             367.00,396.00 367.00,393.00 367.00,393.00 Z
           M 243.00,388.17
           C 247.71,389.02 249.64,394.08 251.77,398.00
             254.19,402.45 258.03,410.76 254.36,415.61
             253.05,417.34 249.01,419.33 247.00,420.36
             245.34,421.21 242.99,422.44 241.10,422.53
             237.05,422.72 234.22,416.18 232.97,413.00
             232.26,411.18 230.32,405.93 230.50,404.17
             230.68,402.30 238.85,390.90 240.51,389.47
             242.22,388.01 241.93,388.64 243.00,388.17 Z
           M 523.31,389.13
           C 528.31,388.20 529.36,392.44 532.12,396.00
             533.97,398.39 537.23,402.09 537.98,405.00
             539.05,409.20 534.52,419.44 530.89,421.77
             521.31,427.94 511.51,410.71 512.70,406.00
             513.38,403.31 521.01,391.00 523.31,389.13 Z
           M 306.00,396.00
           C 306.00,396.00 321.00,404.91 321.00,404.91
             321.00,404.91 339.00,415.00 339.00,415.00
             339.00,415.00 332.90,427.00 332.90,427.00
             332.90,427.00 330.07,433.39 330.07,433.39
             330.07,433.39 325.98,434.30 325.98,434.30
             325.98,434.30 316.00,429.41 316.00,429.41
             316.00,429.41 295.00,419.00 295.00,419.00
             296.07,412.44 302.50,402.15 306.00,396.00 Z
           M 460.00,396.00
           C 460.00,396.00 468.74,412.00 468.74,412.00
             469.65,413.79 471.35,416.87 471.01,418.90
             470.60,421.38 467.93,422.79 466.00,424.00
             466.00,424.00 451.00,432.79 451.00,432.79
             449.10,433.89 446.50,435.66 444.22,434.76
             441.74,433.77 439.88,428.39 438.75,426.00
             437.32,423.00 433.72,416.33 434.70,413.10
             435.62,410.09 439.49,408.60 442.00,407.13
             442.00,407.13 460.00,396.00 460.00,396.00 Z
           M 359.00,471.00
           C 353.97,469.24 353.83,468.05 350.72,464.01
             348.83,461.56 343.89,456.64 343.32,453.99
             342.75,451.35 344.60,448.30 345.76,446.00
             349.54,438.51 352.27,435.20 357.85,429.01
             360.48,426.10 368.31,418.09 372.00,417.41
             374.84,416.89 377.12,419.28 379.00,421.04
             384.66,426.34 388.46,429.01 383.17,436.00
             383.17,436.00 371.24,451.00 371.24,451.00
             371.24,451.00 359.00,471.00 359.00,471.00 Z
           M 421.00,421.00
           C 424.79,426.68 425.56,427.77 428.47,434.00
             433.48,444.71 437.45,447.18 427.00,454.41
             425.08,455.74 421.94,458.18 419.50,456.87
             417.18,455.63 415.21,448.55 414.31,446.00
             413.45,443.57 409.63,433.81 409.70,432.00
             409.88,427.27 417.13,422.74 421.00,421.00 Z
           M 249.96,430.95
           C 255.07,431.96 256.02,436.55 257.68,441.00
             258.63,443.54 261.21,449.52 261.05,451.96
             260.79,456.23 251.87,461.00 248.00,461.32
             246.08,461.49 244.81,461.01 243.41,459.67
             241.11,457.46 236.04,446.26 236.49,443.00
             237.26,437.35 244.83,432.25 249.96,430.95 Z
           M 519.00,430.00
           C 528.38,435.02 529.89,436.17 536.00,445.00
             533.00,449.23 529.05,460.05 524.71,461.84
             521.89,463.00 518.23,459.89 516.00,458.34
             514.32,457.16 512.07,455.75 511.19,453.82
             509.73,450.61 513.01,439.17 514.67,436.00
             515.91,433.63 517.31,432.03 519.00,430.00 Z
           M 467.00,484.00
           C 464.99,481.69 460.45,476.90 459.92,474.00
             459.19,470.00 463.38,466.63 462.96,456.00
             462.81,452.15 459.12,440.33 460.12,438.39
             461.54,435.66 471.83,431.36 474.83,431.80
             482.44,432.91 483.19,443.06 482.96,449.00
             482.53,460.09 475.77,477.14 467.00,484.00 Z
           M 309.00,438.00
           C 305.47,446.40 304.53,450.95 306.26,460.00
             308.20,470.16 311.55,467.70 308.43,476.98
             307.91,478.54 307.60,480.12 306.41,481.35
             300.85,487.07 294.76,477.09 292.31,473.00
             286.56,463.42 284.70,454.07 284.34,443.00
             284.19,438.33 289.14,432.38 294.01,432.35
             297.50,432.33 305.83,436.24 309.00,438.00 Z
           M 396.00,446.00
           C 402.82,450.90 403.20,452.93 406.78,460.00
             408.03,462.48 409.92,465.13 408.85,468.00
             407.96,470.37 403.89,474.05 402.04,476.00
             398.80,479.41 396.05,483.20 393.28,487.00
             393.28,487.00 382.55,501.94 382.55,501.94
             381.30,503.51 379.70,505.95 377.35,504.83
             375.02,503.73 373.24,498.30 371.97,496.00
             370.51,493.36 366.33,488.49 366.03,486.00
             365.72,483.44 367.79,481.01 369.14,479.00
             369.14,479.00 379.71,464.00 379.71,464.00
             386.73,454.19 387.75,454.03 396.00,446.00 Z
           M 505.00,465.00
           C 515.18,472.03 510.61,469.47 522.00,474.00
             521.04,479.12 519.52,481.31 517.60,486.00
             515.65,490.77 513.76,495.58 511.07,500.00
             498.67,520.44 477.03,535.79 454.00,541.53
             443.76,544.07 428.40,546.59 419.00,541.00
             419.00,541.00 426.00,522.00 426.00,522.00
             438.40,520.75 449.35,519.78 461.00,514.48
             472.09,509.45 486.32,495.74 493.52,486.00
             493.52,486.00 505.00,465.00 505.00,465.00 Z
           M 250.00,474.00
           C 250.00,474.00 267.00,468.00 267.00,468.00
             267.00,468.00 275.89,483.00 275.89,483.00
             287.22,499.99 302.06,513.38 322.00,519.09
             327.02,520.53 336.79,521.88 342.00,521.98
             348.91,522.12 350.23,520.24 357.00,523.00
             353.97,529.54 348.10,534.99 343.00,540.00
             340.72,542.24 338.26,544.98 335.00,545.65
             328.60,546.96 312.90,540.53 307.00,537.60
             291.59,529.95 278.59,521.83 267.82,508.00
             267.82,508.00 262.11,499.58 262.11,499.58
             257.88,493.58 250.76,481.16 250.00,474.00 Z
           M 425.00,485.00
           C 430.44,482.21 432.30,481.92 438.00,480.36
             438.00,480.36 449.95,476.74 449.95,476.74
             451.29,476.70 452.18,476.87 453.22,477.78
             454.88,479.23 460.62,489.80 460.18,491.79
             459.69,493.95 456.78,495.53 455.00,496.51
             450.32,499.07 442.19,502.12 437.00,503.77
             434.89,504.16 430.53,505.49 428.64,503.77
             426.77,502.46 427.92,498.21 427.95,496.00
             428.00,491.31 426.50,489.21 425.00,485.00 Z
           M 311.00,492.00
           C 311.80,488.49 314.12,479.87 317.39,478.11
             319.43,477.02 321.97,478.05 324.00,478.66
             324.00,478.66 338.00,482.34 338.00,482.34
             340.23,482.83 343.75,483.12 345.40,484.74
             347.02,486.32 347.20,489.78 347.90,492.00
             347.90,492.00 351.87,500.98 351.87,500.98
             352.32,502.37 352.65,503.89 351.36,504.96
             349.10,506.85 339.84,504.08 337.00,503.37
             333.08,502.40 329.79,501.67 326.00,500.14
             318.96,497.28 317.25,496.16 311.00,492.00 Z
           M 362.00,540.00
           C 376.07,531.85 379.65,527.34 389.36,515.00
             389.36,515.00 396.45,506.00 396.45,506.00
             396.45,506.00 404.07,494.02 404.07,494.02
             405.15,492.41 406.72,489.38 408.96,489.34
             411.23,489.30 412.19,492.31 412.84,494.01
             414.75,498.98 414.71,506.69 414.04,512.00
             412.36,525.38 400.82,534.67 393.43,545.00
             389.76,550.12 391.90,553.77 388.57,555.54
             385.96,556.94 382.42,555.09 380.00,554.02
             373.46,551.12 365.19,546.59 362.00,540.00 Z" />
</svg>
